Coordinates
version=1
nRows=17
nColumns=36
inDegrees=yes

Units are S.I. units (second, meters, Newtons, ...)
If the header above contains a line with 'inDegrees', this indicates whether rotational values are in degrees (yes) or radians (no).

endheader
time	pelvis_tilt	pelvis_list	pelvis_rotation	pelvis_tx	pelvis_ty	pelvis_tz	hip_flexion_r	hip_adduction_r	hip_rotation_r	knee_angle_r	knee_angle_r_beta	ankle_angle_r	subtalar_angle_r	mtp_angle_r	hip_flexion_l	hip_adduction_l	hip_rotation_l	knee_angle_l	knee_angle_l_beta	ankle_angle_l	subtalar_angle_l	mtp_angle_l	lumbar_extension	lumbar_bending	lumbar_rotation	arm_flex_r	arm_add_r	arm_rot_r	elbow_flex_r	pro_sup_r	arm_flex_l	arm_add_l	arm_rot_l	elbow_flex_l	pro_sup_l
      2.09000000	    -16.31184302	     -4.73018962	      0.60656719	     -0.31247077	      0.65977205	     -0.53317160	     78.83405650	      0.50384583	     -1.00540978	     94.77828029	      1.65419305	     27.81063312	    -16.24178451	     -7.36776408	     81.13530751	     -4.41472180	     14.13346715	     94.49337312	      1.64922048	     29.16059748	     -4.25428706	     -7.36776408	    -35.41535617	      4.32189353	     -5.25398364	     33.55484515	    -17.73882816	     17.32129394	     56.00336455	    112.74199474	     31.57562220	    -17.59715894	     -5.60609027	     44.00262639	     77.64915964
      2.10000000	    -16.50438340	     -4.68058410	      0.67527084	     -0.30976454	      0.65034087	     -0.53439213	     79.95597281	      0.04187869	     -1.03518307	     96.61289692	      1.68621315	     28.14825000	    -16.31927103	     -7.36810604	     82.39653938	     -4.46993842	     13.90707074	     96.33851384	      1.68142426	     29.48045561	     -4.21977102	     -7.36810604	    -36.19888907	      4.35241961	     -4.79943146	     37.05680482	    -16.50202370	     17.29039430	     56.78753881	    112.74766398	     34.44222975	    -17.19874084	     -5.59982018	     44.93265186	     77.77743322
      2.11000000	    -16.53413729	     -4.49523333	      0.83041819	     -0.30664655	      0.64207092	     -0.53537591	     80.70976590	     -0.50864401	     -0.83330940	     98.43533795	      1.71802075	     30.64398837	    -13.93838762	     -7.37413162	     83.24963539	     -4.49030430	     13.64022629	     98.09974598	      1.71216356	     31.57095268	     -1.82562278	     -7.37413162	    -36.90275996	      4.33014327	     -5.51823891	     41.29761753	    -14.39727061	     18.76904351	     56.17353542	    112.34091986	     35.61395388	    -16.99391776	     -8.49294442	     48.41281949	     78.63869338
      2.12000000	    -16.62155125	     -4.35488965	      0.94109468	     -0.30371978	      0.63532618	     -0.53575762	     81.37682722	     -0.87913188	     -0.76751560	     99.85598471	      1.74281571	     31.52404432	    -13.68808634	     -7.38132419	     83.96595446	     -4.39583957	     13.43371713	     99.47391113	      1.73614727	     32.08646552	     -1.93693960	     -7.38132419	    -37.56976788	      4.19811765	     -5.40794970	     44.42756601	    -12.97228612	     18.77340737	     57.19816407	    112.00806364	     37.21205583	    -16.87101795	     -8.89395938	     51.67263739	     79.63939496
      2.13000000	    -16.82844828	     -4.35490840	      1.18929574	     -0.30083686	      0.62969456	     -0.53614065	     82.07471319	     -1.46124727	     -1.02786225	    101.08130856	      1.76420165	     31.89492452	    -13.63425721	     -7.38277623	     84.63490836	     -4.10458906	     13.47118620	    100.56909981	      1.75526192	     32.68433765	     -2.09990966	     -7.38277623	    -37.98069617	      4.13555541	     -4.98471145	     46.93955427	    -12.13040038	     18.49381238	     58.78585217	    112.03337520	     38.95307427	    -16.89082092	     -7.75356475	     54.76454285	     80.13487337
      2.14000000	    -17.09694810	     -4.31600258	      1.42347546	     -0.29779310	      0.62493202	     -0.53653007	     82.78314779	     -2.02542329	     -1.19152586	    102.21213735	      1.78393833	     32.21454785	    -13.31643529	     -7.38436574	     85.31638939	     -4.11360278	     13.18051130	    101.49433252	      1.77141027	     33.21418686	     -1.84391931	     -7.38436574	    -38.18653310	      4.09767640	     -4.88213445	     49.15980014	    -11.19357029	     18.17518934	     60.79526169	    112.09963365	     40.00634785	    -17.37845052	     -6.26148803	     58.40470758	     80.66945253
      2.15000000	    -17.33511590	     -4.26376167	      1.63039073	     -0.29449062	      0.62111352	     -0.53699709	     83.32358406	     -2.41545459	     -1.20027687	    103.17320966	      1.80071221	     32.56985854	    -13.07939011	     -7.38600844	     85.88495119	     -4.32954931	     12.75217272	    102.28796051	      1.78526170	     33.74915562	     -1.28346122	     -7.38600844	    -38.23452134	      4.05083341	     -4.86888413	     51.19583938	    -10.43145361	     18.21907633	     62.62148574	    112.15609538	     40.77663983	    -18.01349437	     -4.55257285	     62.01446396	     81.16222421
      2.16000000	    -17.51842877	     -4.32082349	      1.77851778	     -0.29102270	      0.61826306	     -0.53752143	     83.60181052	     -2.56749255	     -1.20192270	    103.86018722	      1.81270223	     32.93500407	    -13.01572649	     -7.38776533	     86.28406956	     -4.53755234	     12.53502302	    102.96887376	      1.79714587	     34.30832122	     -0.70116012	     -7.38776533	    -38.18816766	      4.15258682	     -4.79900917	     53.10668997	     -9.89893587	     18.79762292	     64.26771098	    112.10146429	     41.35353866	    -18.75980711	     -2.60364370	     65.47815818	     81.60083345
      2.17000000	    -17.55638242	     -4.45410029	      1.83845347	     -0.28740310	      0.61673816	     -0.53785060	     83.48411399	     -2.56799807	     -1.32614739	    104.26412776	      1.81975232	     33.38937720	    -13.09539897	     -7.38921916	     86.34306893	     -4.70410130	     12.57676876	    103.48580485	      1.80616802	     34.82424559	     -0.34051262	     -7.38921916	    -38.18205566	      4.25797444	     -4.54224749	     54.82872599	     -9.64537310	     19.50670031	     65.72237099	    111.92516981	     41.91412857	    -19.38374182	     -0.54239070	     68.70439328	     81.99926738
      2.18000000	    -17.50209245	     -4.49504838	      1.92168439	     -0.28353905	      0.61639917	     -0.53798905	     83.09225156	     -2.61702663	     -1.42516496	    104.63147189	      1.82616369	     34.15148250	    -12.77177584	     -7.39237387	     86.10129847	     -4.78292676	     12.60962467	    103.81735195	      1.81195461	     35.48997310	      0.33142420	     -7.39237387	    -38.15992662	      4.30616300	     -4.42281261	     56.27844396	     -9.45650343	     20.27964384	     67.23780291	    111.24674914	     42.33109613	    -20.11125111	      1.42050582	     71.74567712	     82.26102069
      2.19000000	    -17.41577313	     -4.57256777	      2.16781929	     -0.27946484	      0.61700711	     -0.53823197	     82.51098717	     -2.68893004	     -1.53380286	    104.92183701	      1.83123151	     34.83051525	    -12.88143920	     -7.39335088	     85.69257438	     -4.65744318	     12.68112650	    103.95263324	      1.81431572	     35.84249749	      0.30725920	     -7.39335088	    -37.95819402	      4.39256808	     -4.18631222	     57.22691180	     -9.50617167	     20.55862287	     68.56137097	    111.13328606	     42.82580272	    -20.29445736	      3.06532441	     74.31045255	     82.58481532
      2.20000000	    -17.44114577	     -4.49439995	      2.46382781	     -0.27519460	      0.61828149	     -0.53845166	     82.02701565	     -2.75709116	     -1.42381571	    105.04621111	      1.83340225	     35.30031884	    -12.89397824	     -7.39489177	     85.20786331	     -4.37346569	     12.64957889	    103.91706749	      1.81369498	     36.16984440	      0.38134641	     -7.39489177	    -37.53904910	      4.38516345	     -4.27783064	     57.62340911	     -9.45571507	     20.73163996	     70.45072157	    111.00549196	     43.07042032	    -20.90061967	      4.80695743	     76.70000670	     82.87083201
      2.21000000	    -17.47552151	     -4.43903030	      2.83616952	     -0.27085026	      0.62051639	     -0.53884178	     81.51592341	     -2.85637113	     -1.34069448	    104.92900191	      1.83135656	     35.36732004	    -13.24763690	     -7.39578894	     84.62007568	     -3.96887293	     12.63749568	    103.68833356	      1.80970282	     36.38901274	      0.33101230	     -7.39578894	    -36.89205676	      4.37516147	     -4.39567708	     57.65047801	     -9.43553773	     20.52917048	     71.68853250	    110.95851839	     43.24702375	    -21.11244895	      6.14599801	     78.64620405	     83.10904413
      2.22000000	    -17.41375208	     -4.31270154	      3.01324878	     -0.26634143	      0.62398284	     -0.53874435	     80.89076424	     -2.70276246	     -1.14219938	    104.67762992	      1.82696930	     34.89397259	    -13.85442085	     -7.39720859	     83.82766369	     -3.85221653	     12.43169936	    103.34838580	      1.80376961	     36.45958314	      0.16274213	     -7.39720859	    -36.32824418	      4.18797468	     -4.53228215	     57.10119138	     -9.27346360	     19.86856614	     73.56365208	    110.85091010	     43.16077075	    -21.63613566	      7.50532818	     80.59236060	     83.30902274
      2.23000000	    -17.39420114	     -4.27082656	      3.27180029	     -0.26196702	      0.62837075	     -0.53898819	     80.24346691	     -2.65926482	     -1.04931375	    104.32543368	      1.82082231	     34.26807654	    -14.32824807	     -7.39830535	     83.05405348	     -3.63769276	     12.23455724	    102.84158921	      1.79492434	     36.34918010	     -0.17479671	     -7.39830535	    -35.61531970	      4.15403090	     -4.68466523	     56.27199285	     -9.33101252	     19.19550147	     75.17966251	    110.74607439	     42.88892190	    -21.82173426	      8.32042564	     82.32785517	     83.48038685
      2.24000000	    -17.50942719	     -4.23152885	      3.54199491	     -0.25754555	      0.63320188	     -0.53965682	     79.72024873	     -2.72289585	     -1.01495215	    103.91300252	      1.81362403	     33.33527908	    -15.06763252	     -7.39992553	     82.39416656	     -3.33879714	     11.97303975	    102.29046379	      1.78530539	     35.87996929	     -0.92738347	     -7.39992553	    -34.65047497	      4.16813532	     -4.89719213	     54.93195024	     -9.47541704	     18.25930068	     77.14344413	    110.52984496	     42.23612269	    -21.90204644	      8.73080548	     83.94285193	     83.60903371
      2.25000000	    -17.70057227	     -4.34312520	      3.95624164	     -0.25315736	      0.63866921	     -0.54095091	     79.14260263	     -2.93960649	     -1.14859058	    103.31973768	      1.80326960	     32.55355836	    -15.53569597	     -7.40101905	     81.78387457	     -2.87619552	     11.87005039	    101.59434676	      1.77315585	     35.45748549	     -1.55557940	     -7.40101905	    -33.51800781	      4.44926232	     -5.25834331	     53.50288432	     -9.82154456	     17.58576617	     78.85596586	    110.37593491	     41.27209792	    -21.94659875	      8.85230501	     85.49602807	     83.77649976
